<svg id="Contact_graph" xmlns="http://www.w3.org/2000/svg" width="464.709" height="489.5" viewBox="0 0 464.709 489.5">
  <path id="Path_303" data-name="Path 303" d="M628.376,176.067h-2.505V107.442a39.719,39.719,0,0,0-39.719-39.719H440.76a39.719,39.719,0,0,0-39.719,39.719V483.927a39.719,39.719,0,0,0,39.719,39.719H586.152a39.719,39.719,0,0,0,39.719-39.719V224.916h2.505Z" transform="translate(-296.069 -67.723)" fill="#3f3d56"/>
  <rect id="Rectangle_55" data-name="Rectangle 55" width="459.694" height="1.28" transform="translate(0.156 437.203)" fill="#3f3d56"/>
  <path id="Path_304" data-name="Path 304" d="M623.576,113.528V489.459a29.636,29.636,0,0,1-29.662,29.662H447.823a29.642,29.642,0,0,1-29.662-29.662V113.528a29.642,29.642,0,0,1,29.662-29.662h17.722a14.09,14.09,0,0,0,13.048,19.412h83.3a14.09,14.09,0,0,0,13.048-19.412h18.977a29.636,29.636,0,0,1,29.662,29.662Z" transform="translate(-302.228 -73.53)" opacity="0.2"/>
  <path id="Path_305" data-name="Path 305" d="M293.284,725.08l-.687-.258c-.151-.057-15.179-5.815-22.219-18.87s-3.593-28.776-3.557-28.933l.162-.716.687.258c.151.057,15.179,5.815,22.219,18.87s3.593,28.776,3.557,28.933Zm-21.779-19.735c5.952,11.039,17.828,16.7,20.837,17.989.572-3.225,2.366-16.266-3.58-27.294s-17.826-16.694-20.837-17.989C267.353,681.277,265.559,694.317,271.505,705.345Z" transform="translate(-247.467 -286.665)" fill="#3f3d56"/>
  <path id="Path_306" data-name="Path 306" d="M265.375,712.465c12.652,7.612,17.524,22.73,17.524,22.73s-15.64,2.778-28.291-4.834-17.524-22.73-17.524-22.73S252.723,704.853,265.375,712.465Z" transform="translate(-237.084 -297.757)" fill="#6c63ff"/>
  <path id="Path_307" data-name="Path 307" d="M468.536,83.866V519.122h-7.2a29.384,29.384,0,0,1-5.609-.531V84.4a29.382,29.382,0,0,1,5.609-.531Z" transform="translate(-315.744 -73.53)" fill="#3f3d56"/>
  <rect id="Rectangle_56" data-name="Rectangle 56" width="12.805" height="415.844" transform="translate(209.134 29.748)" fill="#3f3d56"/>
  <path id="Path_308" data-name="Path 308" d="M701.536,85.7V517.29a29.571,29.571,0,0,1-10.282,1.831h-2.523V83.866h2.523A29.571,29.571,0,0,1,701.536,85.7Z" transform="translate(-399.567 -73.53)" fill="#3f3d56"/>
  <rect id="Rectangle_57" data-name="Rectangle 57" width="205.415" height="12.805" transform="translate(115.934 82.811)" fill="#3f3d56"/>
  <rect id="Rectangle_58" data-name="Rectangle 58" width="205.415" height="12.805" transform="translate(115.934 228.146)" fill="#3f3d56"/>
  <rect id="Rectangle_59" data-name="Rectangle 59" width="103.079" height="12.805" transform="translate(211.695 299.853)" fill="#3f3d56"/>
  <rect id="Rectangle_60" data-name="Rectangle 60" width="112.215" height="12.805" transform="translate(209.134 137.231)" fill="#3f3d56"/>
  <path id="Path_309" data-name="Path 309" d="M283.53,141.772l-1.485.858-7.766,4.482-56.341,32.531-12.8,7.395-24.054,13.887v-14.79l24.054-13.887,12.8-7.388,38.5-22.229,17.844-10.3,2.849-1.645Z" transform="translate(-65.144 -47.014)" fill="#3f3d56"/>
  <rect id="Rectangle_61" data-name="Rectangle 61" width="205.415" height="12.805" transform="translate(115.934 368.359)" fill="#3f3d56"/>
  <path id="Path_310" data-name="Path 310" d="M725.987,241.694c0,40.664-73.628,131.25-73.628,131.25s-73.628-90.586-73.628-131.25a73.628,73.628,0,0,1,147.256,0Z" transform="translate(-359.994 -103.822)" fill="#6c63ff"/>
  <circle id="Ellipse_47" data-name="Ellipse 47" cx="43.536" cy="43.536" r="43.536" transform="translate(248.829 91.134)" opacity="0.2"/>
  <circle id="Ellipse_48" data-name="Ellipse 48" cx="16.219" cy="16.219" r="16.219" transform="translate(274.714 119.417)" fill="#6c63ff"/>
  <path id="Path_311" data-name="Path 311" d="M703.95,336.809a24.329,24.329,0,1,0-47.78,0Z" transform="translate(-387.695 -154.121)" fill="#6c63ff"/>
  <path id="Path_312" data-name="Path 312" d="M792.214,188.91s-11.568-4.131-19,12.394-19,34.7-19,34.7l6.61,1.653s1.653-11.568,5.784-13.22l-1.653,14.873s49.576,17.352,71.886-1.653l-.826-5.784s3.305.826,3.305,5.784l2.479-2.479s-2.479-4.958-9.915-11.568c-4.881-4.339-6.558-12.593-7.135-17.754a21.483,21.483,0,0,0-4.946-11.7C814.852,188.434,805.848,182.347,792.214,188.91Z" transform="translate(-423.122 -110.298)" fill="#2f2e41"/>
  <path id="Path_313" data-name="Path 313" d="M906.49,336.566s21.768,18.567,24.969,29.451-12.165,12.165-12.165,12.165L886,381.383s-.64,15.366-6.4,17.287-1.17-25.41-1.17-25.41l32.542-9.163-14.726-15.366Z" transform="translate(-467.189 -164.441)" fill="#fbbebe"/>
  <path id="Path_314" data-name="Path 314" d="M751.334,366.566,748.773,400.5l-14.085,57.622s-12.8,26.25-1.921,26.89,10.244-24.969,10.244-24.969L763.5,405.621l1.921-37.134Z" transform="translate(-413.832 -175.234)" fill="#fbbebe"/>
  <path id="Path_315" data-name="Path 315" d="M545.148,681.764v24.969l15.366-3.841-4.482-23.049Z" transform="translate(-196.121 -244.579)" fill="#fbbebe"/>
  <path id="Path_316" data-name="Path 316" d="M673.148,681.764v24.969l15.366-3.841-4.482-23.049Z" transform="translate(-242.17 -244.579)" fill="#fbbebe"/>
  <circle id="Ellipse_49" data-name="Ellipse 49" cx="21.128" cy="21.128" r="21.128" transform="translate(352.228 89.534)" fill="#fbbebe"/>
  <path id="Path_317" data-name="Path 317" d="M801.5,256.566s7.683,27.53-4.482,34.573,30.732,12.165,42.256-8.963c0,0-20.488-7.043-14.726-25.61Z" transform="translate(-437.752 -135.661)" fill="#fbbebe"/>
  <path id="Path_318" data-name="Path 318" d="M775.036,314.846l-3.841-1.28s-7.683,3.2-7.683,8.963-1.28,28.811-1.28,28.811l17.287,1.921Z" transform="translate(-426.009 -156.167)" fill="#575a89"/>
  <path id="Path_319" data-name="Path 319" d="M774.359,422.509s-21.128,26.923-21.128,59.575,5.122,151.1,5.122,151.1,19.207,8.963,30.732-1.921L799.328,496.81l40.335,138.933s19.207,3.841,28.171-2.561l-17.286-89.634s-.64-106.28-19.848-113.963S774.359,422.509,774.359,422.509Z" transform="translate(-422.772 -195.356)" fill="#2f2e41"/>
  <path id="Path_320" data-name="Path 320" d="M797.045,775.778s-16.646-8.963-17.927,3.2-1.921,19.848-1.921,19.848-1.921,14.726,16.006,11.524,11.524-12.165,11.524-12.165-6.4-10.244-6.4-12.8A88.946,88.946,0,0,0,797.045,775.778Z" transform="translate(-431.372 -321.307)" fill="#2f2e41"/>
  <path id="Path_321" data-name="Path 321" d="M904.9,774.372s15.15-11.311,18.2.534,4.815,19.35,4.815,19.35,4.062,14.284-14.14,13.75-13.186-10.34-13.186-10.34,4.829-11.073,4.453-13.606A88.945,88.945,0,0,1,904.9,774.372Z" transform="translate(-475.556 -320.192)" fill="#2f2e41"/>
  <path id="Path_322" data-name="Path 322" d="M876.073,300.979s8.323-4.482,16.646,5.122l16.646,19.207-12.8,14.085-24.329-14.726Z" transform="translate(-465.583 -151.263)" fill="#575a89"/>
  <path id="Path_323" data-name="Path 323" d="M784.143,226.635c7.479-5.413,13.534-11.648,17.539-19.064,0,0,13.726,15.251,22.114,16.014s.763-18.3.763-18.3l-15.251-3.813L794.819,203l-11.439,7.626Z" transform="translate(-433.618 -115.839)" fill="#2f2e41"/>
  <path id="Path_324" data-name="Path 324" d="M829.371,294.566s-8.96,14.166-35.852,7.4l-15.26,4.2-2.028.559s1.921,38.415,7.043,45.457,3.841,10.884,2.561,11.524-4.482-.64-2.561,2.561,4.482,1.281,1.921,3.2-3.841,8.963-3.841,8.963l60.183,7.683s-1.921-24.969,3.2-37.774,6.4-17.927,6.4-17.927L847.3,298.407Z" transform="translate(-431.046 -149.332)" fill="#575a89"/>
  <circle id="Ellipse_50" data-name="Ellipse 50" cx="19.848" cy="19.848" r="19.848" transform="translate(278.92 282.566)" fill="#6c63ff"/>
</svg>
