<svg id="home" xmlns="http://www.w3.org/2000/svg" width="1019.484" height="436.682" viewBox="0 0 1019.484 436.682">
  <path id="Path_1" data-name="Path 1" d="M314.028,475.274a9.751,9.751,0,1,0-19.407,1.282l-28.014,36.686a13.582,13.582,0,0,0,1.836,14.914l2.2,2.564,10.083-2.017,11.428-10.083-1.345-11.428,14.117-22.183-.018-.016a9.743,9.743,0,0,0,9.124-9.719Z" transform="translate(-90.258 -231.659)" fill="#ffb9b9"/>
  <path id="Path_2" data-name="Path 2" d="M30.041,422.968l-4.573-16.984L88.8,380.265l6.749,25.066Z" transform="translate(0 0)" fill="#ffb8b8"/>
  <path id="Path_3" data-name="Path 3" d="M105,663.391,90.258,608.629l.693-.187A22.075,22.075,0,0,1,118,624.018h0l9.005,33.447Z" transform="translate(-90.258 -231.659)" fill="#2f2e41"/>
  <path id="Path_4" data-name="Path 4" d="M117.278,420.254,103.054,409.91l33.131-59.789,20.994,15.267Z" transform="translate(0 0)" fill="#ffb8b8"/>
  <path id="Path_5" data-name="Path 5" d="M201.137,668.341l-45.866-33.356.422-.58a22.075,22.075,0,0,1,30.835-4.87h0l28.013,20.373Z" transform="translate(-90.258 -231.659)" fill="#2f2e41"/>
  <path id="Path_6" data-name="Path 6" d="M328.45,568.364l-35.795-34.773a18.076,18.076,0,0,0-23.668-1.322L201.4,607.352l6.05,9.411,64.533-43.694,43.694,57.139,41.678-20.838Z" transform="translate(-90.258 -231.659)" fill="#2f2e41"/>
  <path id="Path_7" data-name="Path 7" d="M312.989,575.758l-26.217-2.017-18.986-4.6a9.753,9.753,0,1,0-1.85,12.656l0,.014,11.428,4.706,49.072,16.805,6.05-4.706Z" transform="translate(-90.258 -231.659)" fill="#ffb9b9"/>
  <path id="Path_8" data-name="Path 8" d="M285.92,416.7l-14.789,9.411H253.653l-81.338-30.25L53.332,417.371l-3.361-25.545,108.9-47.727,95.455,31.594Z" transform="translate(0 0)" fill="#2f2e41"/>
  <circle id="Ellipse_1" data-name="Ellipse 1" cx="26.217" cy="26.217" r="26.217" transform="translate(228.109 200.916)" fill="#ffb9b9"/>
  <path id="Path_9" data-name="Path 9" d="M412.417,563.463a150.628,150.628,0,0,1-7.387,46.589l-1.964,6.039-9.411,43.022L383.572,661.8l-7.394-9.411-14.789-10.755-10.755-17.478-9.223-15.367-2.877-4.8-10.083-50.417-38.316-21.511-12.772-2.017,2.689-7.394,11.428-15.461,11.427-1.345,3.361-2.689,2.689,1.344,14.823,5.71,48.057-20.3,7.031,1.15,24.2,20.167A150.5,150.5,0,0,1,412.417,563.463Z" transform="translate(-90.258 -231.659)" fill="#ccc"/>
  <path id="Path_10" data-name="Path 10" d="M314.825,325.949l-25.544,16.8-38.128,34.377-2.877-4.8L240.209,332h2.017l20.839-38.316Z" transform="translate(0 0)" opacity="0.1"/>
  <path id="Path_11" data-name="Path 11" d="M263.065,289.649l-20.839,38.316-12.1,13.445L219.371,344.1l28.9,31.594,41.005-36.972,25.544-16.806Z" transform="translate(0 0)" fill="#ccc"/>
  <path id="Path_12" data-name="Path 12" d="M324.193,439.3l-2.841,1.093a3.965,3.965,0,0,1-1.06-5.507l.047-.067-5.249-.246a39.637,39.637,0,0,1,59.173-4.769c.239-.823,2.844.778,3.908,2.4.357-1.339,2.8,5.135,3.664,9.712.4-1.524,1.938.936.591,3.3.854-.125,1.239,2.059.578,3.276.934-.439.777,2.169-.236,3.911,1.333-.118-.114,27.331-20.114,25.331-1.392-6.4-1-6-2.64-14.226-.763-.81-1.6-1.548-2.433-2.284l-4.513-3.983c-5.247-4.632-10.021-10.348-17.011-12.079-4.8-1.19-7.841-1.458-5.223-6.872-2.365.987-4.574,2.455-6.961,3.372C323.9,440.9,324.239,440.055,324.193,439.3Z" transform="translate(-90.258 -231.659)" fill="#2f2e41"/>
  <circle id="Ellipse_2" data-name="Ellipse 2" cx="4.706" cy="4.706" r="4.706" transform="translate(262.729 225.452)" fill="#ffb9b9"/>
  <rect id="Rectangle_1" data-name="Rectangle 1" width="21.61" height="21.61" transform="translate(46.562 140.585) rotate(-86.19)" fill="#e6e6e6"/>
  <path id="Path_13" data-name="Path 13" d="M124.344,362.131l26.183,1.744-1.744,26.183L122.6,388.314Zm24.969,2.806-23.906-1.592-1.592,23.906,23.906,1.592Z" transform="translate(-90.258 -231.659)" fill="#ccc"/>
  <rect id="Rectangle_2" data-name="Rectangle 2" width="21.61" height="21.61" transform="matrix(0.978, -0.21, 0.21, 0.978, 148.725, 59.624)" fill="#e6e6e6"/>
  <path id="Path_14" data-name="Path 14" d="M245.278,276.51l5.513,25.655-25.655,5.513-5.513-25.655Zm4.157,24.78L244.4,277.865,220.978,282.9l5.033,23.424Z" transform="translate(-90.258 -231.659)" fill="#ccc"/>
  <rect id="Rectangle_3" data-name="Rectangle 3" width="21.61" height="21.61" transform="matrix(0.73, -0.684, 0.684, 0.73, 131.878, 171.321)" fill="#e6e6e6"/>
  <path id="Path_15" data-name="Path 15" d="M253.815,386l-19.152,17.938-17.939-19.152,19.152-17.939Zm-19.1,16.326L252.2,385.944l-16.379-17.486-17.486,16.379Z" transform="translate(-90.258 -231.659)" fill="#ccc"/>
  <path id="Path_16" data-name="Path 16" d="M1053.54,231.659H414.152a17.6,17.6,0,0,0-17.6,17.6V605.51a17.6,17.6,0,0,0,17.6,17.6H1053.54a17.6,17.6,0,0,0,17.6-17.6V249.258a17.6,17.6,0,0,0-17.6-17.6Z" transform="translate(-90.258 -231.659)" fill="#3f3d56"/>
  <rect id="Rectangle_4" data-name="Rectangle 4" width="627.391" height="353.913" transform="translate(329.89 31.102)" fill="#fff"/>
  <circle id="Ellipse_3" data-name="Ellipse 3" cx="6.435" cy="6.435" r="6.435" transform="translate(636.614 8.58)" fill="#fff"/>
  <path id="Path_17" data-name="Path 17" d="M777.858,385.015H329.89V31.1Z" transform="translate(0 0)" fill="#f2f2f2"/>
  <circle id="Ellipse_4" data-name="Ellipse 4" cx="60.307" cy="60.307" r="60.307" transform="translate(367.751 237.918)" fill="#6c63ff"/>
  <path id="Path_18" data-name="Path 18" d="M531.741,575.21a75.016,75.016,0,1,1,75.016-75.016,75.016,75.016,0,0,1-75.016,75.016Zm0-149.051a74.035,74.035,0,1,0,74.035,74.035,74.035,74.035,0,0,0-74.035-74.035Z" transform="translate(-90.258 -231.659)" fill="#3f3d56"/>
  <rect id="Rectangle_5" data-name="Rectangle 5" width="58.605" height="12.246" transform="translate(753.437 214.97)" fill="#3f3d56"/>
  <rect id="Rectangle_6" data-name="Rectangle 6" width="169.497" height="5.248" transform="translate(697.991 148.627)" fill="#3f3d56"/>
  <rect id="Rectangle_7" data-name="Rectangle 7" width="169.497" height="5.248" transform="translate(697.991 169.246)" fill="#3f3d56"/>
  <rect id="Rectangle_8" data-name="Rectangle 8" width="169.497" height="5.248" transform="translate(697.991 189.866)" fill="#3f3d56"/>
  <rect id="Rectangle_9" data-name="Rectangle 9" width="24.492" height="24.492" transform="translate(888.401 52.282)" fill="#6c63ff"/>
  <path id="Path_19" data-name="Path 19" d="M1014.52,319.8H984.78v-29.74h29.74Zm-28.447-1.293h27.154V291.357H986.075Z" transform="translate(-90.258 -231.659)" fill="#ccc"/>
  <path id="Path_20" data-name="Path 20" d="M1088.75,610.239h-61.229v-4.412a.875.875,0,0,0-.875-.875h-20.993a.875.875,0,0,0-.875.875v4.412H991.657v-4.412a.875.875,0,0,0-.875-.875H969.789a.875.875,0,0,0-.875.875h0v4.412h-13.12v-4.412a.875.875,0,0,0-.875-.875H933.926a.875.875,0,0,0-.875.875h0v4.412H919.931v-4.412a.875.875,0,0,0-.875-.875H898.064a.875.875,0,0,0-.875.875v4.412H884.068v-4.412a.875.875,0,0,0-.875-.875H862.2a.875.875,0,0,0-.875.875h0v4.412h-13.12v-4.412a.875.875,0,0,0-.875-.875H826.338a.875.875,0,0,0-.875.875h0v4.412h-13.12v-4.412a.875.875,0,0,0-.875-.875H647.023a.875.875,0,0,0-.875.875h0v4.412h-13.12v-4.412a.875.875,0,0,0-.875-.875H611.161a.875.875,0,0,0-.875.875h0v4.412H597.166v-4.412a.875.875,0,0,0-.875-.875H575.3a.875.875,0,0,0-.875.875h0v4.412H561.3v-4.412a.875.875,0,0,0-.875-.875H539.435a.875.875,0,0,0-.875.875h0v4.412H525.44v-4.412a.875.875,0,0,0-.875-.875H503.572a.875.875,0,0,0-.875.875h0v4.412H489.577v-4.412a.875.875,0,0,0-.875-.875H467.709a.875.875,0,0,0-.875.875v4.412h-13.12v-4.412a.875.875,0,0,0-.875-.875H431.846a.875.875,0,0,0-.875.875h0v4.412H390.735a20.993,20.993,0,0,0-20.993,20.993v9.492a20.993,20.993,0,0,0,20.993,20.992h698.014a20.993,20.993,0,0,0,20.993-20.993v-9.492a20.993,20.993,0,0,0-20.992-20.993Z" transform="translate(-90.258 -231.659)" fill="#3f3d56"/>
</svg>
