<svg id="port_1" xmlns="http://www.w3.org/2000/svg" xmlns:xlink="http://www.w3.org/1999/xlink" width="745.461" height="497.81" viewBox="0 0 745.461 497.81">
  <defs>
    <linearGradient id="linear-gradient" x1="0.5" y1="1" x2="0.5" gradientUnits="objectBoundingBox">
      <stop offset="0" stop-color="gray" stop-opacity="0.251"/>
      <stop offset="0.54" stop-color="gray" stop-opacity="0.122"/>
      <stop offset="1" stop-color="gray" stop-opacity="0.102"/>
    </linearGradient>
  </defs>
  <path id="Path_82" data-name="Path 82" d="M530.732,183.337c-46.47-1.616-90.729-16.615-133-33.029s-84.123-34.6-129.48-43.3c-29.173-5.593-62.532-6.383-86.04,9.255-22.618,15.078-29.927,41.035-33.862,65.139-2.951,18.144-4.7,37.229,3.411,54.21,5.622,11.79,15.61,21.7,22.517,32.993,24.025,39.29,7.044,87.742-19,126.106-12.206,17.994-26.38,35.183-35.808,54.325s-13.786,41.107-5.543,60.651c8.178,19.387,27.658,33.919,48.754,44.151,42.859,20.779,93.343,26.732,142.613,30.1,109.01,7.46,218.608,4.229,327.905,1,40.453-1.2,81.079-2.413,120.871-8.667,22.1-3.475,44.919-8.99,60.96-22.259,20.363-16.9,25.411-45.508,11.768-66.69-22.89-35.535-86.162-44.366-102.181-82.5-8.81-20.988.237-44.374,13.032-63.839,27.457-41.767,73.475-78.4,75.9-126.142,1.666-32.785-20.456-65.62-54.663-81.136-35.858-16.263-85.574-14.217-112.011,12.7C619.623,174.1,571.76,184.758,530.732,183.337Z" transform="translate(-88.98 -103.348)" fill="#6c63ff" opacity="0.1"/>
  <path id="Path_83" data-name="Path 83" d="M411.1,622.314a27.25,27.25,0,0,0-2.872-7.489,26.23,26.23,0,0,0-4.7-5.148c-5.206-4.725-11.6-9.521-18.5-8.329a24.694,24.694,0,0,0-6.132,2.24c-1.005.467-2.018.933-3.052,1.328a15.2,15.2,0,0,1-9.2.8c-1.58-.424-3.052-1.185-4.61-1.659a14.612,14.612,0,0,0-2.262-.488,38.528,38.528,0,0,0,4.373-2.3c7.74-4.739,13.915-13.3,13.054-22.467a37.093,37.093,0,0,0-2.4-8.939l-2.757-7.625c-1.192-3.3-2.427-6.67-4.6-9.413a23.817,23.817,0,0,0-9.428-6.678c-7.647-3.324-16-4.495-24.255-5.629l-.574-.079V451.31a5.744,5.744,0,0,0-5.744-5.744H316.594q-.718-4.394-1.436-8.774c-1.364-8.336-2.779-16.823-6.62-24.326-2.513-4.911-6.512-9.6-11.9-10.562a11.545,11.545,0,0,1-3.095-.718c-1.58-.775-2.441-2.5-3.655-3.77-3.131-3.281-8.221-3.332-12.415-5.026-3.7-1.472-6.735-4.244-10.11-6.376s-7.568-3.648-11.3-2.262a7.568,7.568,0,0,1-.079.811l-2.4-1.106a26.417,26.417,0,0,1-7.3-4.394c-2.664-2.513-4.086-5.845-5.191-9.385-.115-.366-.223-.718-.337-1.113a33.337,33.337,0,0,0,8.932-17.053l.582,1.888a12.537,12.537,0,0,0,.46,1.249,4.926,4.926,0,0,0,1.436,2.032,2.551,2.551,0,0,0,.6.352,2.513,2.513,0,0,0,.617.158,2.3,2.3,0,0,0,.89-.065,3.4,3.4,0,0,0,2.154-2,4.308,4.308,0,0,0,.251-.876,4.523,4.523,0,0,0,.05-.546v-.747a1.4,1.4,0,0,0-.036-.359v-.187a2.091,2.091,0,0,0-.072-.424c-.029-.136,0-.079,0-.115-.036-.18-.079-.366-.115-.546V351.2c0-.043-.065-.294-.1-.445s-.05-.194-.072-.294v-.043h0c-.072-.287-.136-.567-.2-.854a24.686,24.686,0,0,1-.395-7.582,81.187,81.187,0,0,1,2.054-11.022l.151-.653c.057-.251.115-.5.165-.761.115-.517.23-1.034.337-1.558h0l.258-1.321.194-1.178v-.151a34.042,34.042,0,0,0,.251-8.063h0a16.969,16.969,0,0,0-4.042-10.138c-1.8-2-4.179-3.482-5.852-5.586-1.565-1.967-2.448-4.394-4.071-6.326-4.48-5.349-15.983-9.471-23.041-10.189-8.085-.819-21.146,1.249-27.665,6.024-2.413,1.759-4.064,4.308-5.744,6.721-3.087,4.488-6.591,8.968-11.539,11.488-1.867.948-4.007,1.666-5.249,3.317a8.968,8.968,0,0,0-1.4,3.719,73.749,73.749,0,0,0-1.479,14.2h0v1.8a13.09,13.09,0,0,0,1.12,5.191c.115.244.244.481.381.718l.086.151a28.56,28.56,0,0,1,2.3,3.913,5.184,5.184,0,0,1,.352,1.192,8.789,8.789,0,0,1-.2,3.145h0a2.764,2.764,0,0,1-.093.474l-.065.309a.605.605,0,0,1-.057.316c-.057.309-.108.617-.151.919h0a6.462,6.462,0,0,0,.158,2.484,3.267,3.267,0,0,0,1.594,2.154,4.667,4.667,0,0,0,1.292.4c.452.079.912.129,1.357.23a6.7,6.7,0,0,1,1.644.61,6.619,6.619,0,0,1,1.386.89,7.9,7.9,0,0,1,.6.6,10.055,10.055,0,0,1,1.02,1.393q.23.381.431.775a17.715,17.715,0,0,1,1.228,3.245c.187.668.345,1.343.481,2.018.065.3.122.6.172.9s.1.6.144.89h0a2.089,2.089,0,0,0,.574-.115c1.055-.381,1.644-1.608,1.975-2.8.057-.2.108-.395.151-.589.165-.718.337-1.508.5-2.262a33.3,33.3,0,0,0,13.1,14.432c.2.6.395,1.185.567,1.788.941,3.253,1.393,6.656-.237,9.5a10.051,10.051,0,0,1-5.3,4.121,3.5,3.5,0,0,0-1.185-1.005c-1.888-.948-4.157.2-5.744,1.616-2.872,2.6-5.213,6.326-8.99,7.18-1.364.316-2.872.251-4.007,1.084a9.334,9.334,0,0,0-1.86,2.441,8.559,8.559,0,0,1-7.345,3.662c-1.314-.065-2.872-.366-3.77.6-.668.718-.718,1.852-1.436,2.535-.962.948-2.542.488-3.884.431-2.556-.108-4.933,1.544-6.39,3.662a23.924,23.924,0,0,0-2.872,7.18v.043a5.137,5.137,0,0,0-.524.438,7.576,7.576,0,0,0-1.587,2.57A122.687,122.687,0,0,0,135.861,463.5a4.308,4.308,0,0,1-.46,2.025,9.961,9.961,0,0,1-1.055,1.149,4.028,4.028,0,0,0,.668,5.744,4.522,4.522,0,0,1,.768-1.02c-.079.33-.151.653-.2.948a25.482,25.482,0,0,0-.079,6.319q1.02,14.964,2.061,29.906c.194,2.822.388,5.636.646,8.451q.754,8.171,2.154,16.277a7.021,7.021,0,0,0,.158.718c-5.852,1.86-11.057,5.22-13.247,10.828-.761,1.939-1.106,4.05-2.039,5.909-1.027,2.039-2.714,3.669-3.834,5.665-1.931,3.432-2.018,7.64-1.314,11.488,1.357,7.5,5.414,14.21,10.77,19.667h-.718a11.23,11.23,0,0,0-4.9,1.759c-11.33,6.62-17.807,20.823-15.445,33.79a14.5,14.5,0,0,0,2.973,7.037,11.137,11.137,0,0,0,5.227,3.2,18.161,18.161,0,0,0,3.856.718c8.832.718,17.383-3.375,26.236-3.719a70.369,70.369,0,0,1,8.781.409q6.4.531,12.817.675c6.958.165,10.871-1.687,15.308-6.886A18.742,18.742,0,0,0,187.7,620.3c3.777-.215,7.948-.546,10.964-.79l.043.416c.165,1.436.416,3.088,1.565,3.992a5.463,5.463,0,0,0,2.154.883c7.252,1.781,14.59,3.59,22.058,3.59a93.126,93.126,0,0,0,10.476-.8l13.118-1.515a65.34,65.34,0,0,1,11.273,2.456c3.791,1.285,7.331,3.2,11.036,4.71,8.616,3.49,17.879,4.739,27.055,5.96,1.565.208,3.36.352,4.516-.718,1.493-1.436,1-3.834.574-5.845-.172-.826-.3-1.651-.4-2.484a125.846,125.846,0,0,1,18.123,6.29l1.027.452c.3,1.565,1.745,2.815,3.131,4.5a11.487,11.487,0,0,0,1.587,1.967,5.293,5.293,0,0,0,2.276.818,106.138,106.138,0,0,0,29.389,1.328,30.056,30.056,0,0,1,6.06-.208,26.257,26.257,0,0,1,4.38.984l8.307,2.384c6.125,1.752,12.393,3.525,18.747,3.131a23.985,23.985,0,0,0,3.827-.553c5.026-1.163,9.708-3.971,12.12-8.487C414.51,636.617,412.938,629.063,411.1,622.314Z" transform="translate(-88.905 -154.53)" fill="url(#linear-gradient)"/>
  <path id="Path_84" data-name="Path 84" d="M205.093,745.937c-1.515-3.446-2.951-7.41-1.436-10.856a9.227,9.227,0,0,1,4.775-4.488A22.978,22.978,0,0,1,214.894,729a90.185,90.185,0,0,1,21.009-.287c.51,4.035-.567,8.128-1.493,12.027-.84,3.59-1.321,4.121-5.026,4.308C226.985,745.176,205.66,747.208,205.093,745.937Z" transform="translate(-115.328 -279.554)" fill="#fbbebe"/>
  <ellipse id="Ellipse_6" data-name="Ellipse 6" cx="102.677" cy="28.721" rx="102.677" ry="28.721" transform="translate(51.028 385.693)" fill="#464353"/>
  <ellipse id="Ellipse_7" data-name="Ellipse 7" cx="102.677" cy="28.721" rx="102.677" ry="28.721" transform="translate(51.028 385.693)" opacity="0.1"/>
  <path id="Path_85" data-name="Path 85" d="M293.209,446.383a31.945,31.945,0,0,1-16.471,14.964,41.342,41.342,0,0,1-13.075,2.484,37.245,37.245,0,0,1-14.432-1.759c-6.146-2.226-11.251-6.778-15.078-12.084s-6.462-11.366-8.753-17.477c-1.206-3.181-2.355-6.57-1.788-9.93,3.7-.84,7.747-2.075,9.657-5.356,1.63-2.815,1.178-6.189.237-9.406-.266-.912-.574-1.817-.883-2.685-.718-2.082-3.2-6.039-1.436-7.819,1.1-1.127,5.7-1.7,7.288-2.434,4.89-2.255,9.4-5.514,14.77-6.584,4.646-.926,9.442-.057,14.08.9a4.63,4.63,0,0,1,1.738.625,4.179,4.179,0,0,1,1.292,1.939c1.321,3.217,2.1,6.771,3.159,10.124,1.106,3.511,2.527,6.807,5.191,9.3a26.5,26.5,0,0,0,7.3,4.351l6.362,2.915a8.364,8.364,0,0,1,3.008,1.946,7.618,7.618,0,0,1,1.436,3.906,36.49,36.49,0,0,1-3.6,22.079Z" transform="translate(-121.095 -183.586)" fill="#fbbebe"/>
  <path id="Path_86" data-name="Path 86" d="M276.278,401.887a33.029,33.029,0,0,1-39.972,5.931c-.266-.912-.574-1.817-.883-2.685-.718-2.082-3.2-6.039-1.436-7.819,1.1-1.127,5.7-1.7,7.288-2.434,4.89-2.255,9.4-5.514,14.77-6.584,4.646-.926,9.442-.057,14.08.9a4.63,4.63,0,0,1,1.738.625,4.179,4.179,0,0,1,1.292,1.939C274.44,394.98,275.216,398.534,276.278,401.887Z" transform="translate(-123.888 -183.586)" opacity="0.1"/>
  <circle id="Ellipse_8" data-name="Ellipse 8" cx="33.029" cy="33.029" r="33.029" transform="translate(95.545 160.953)" fill="#fbbebe"/>
  <path id="Path_87" data-name="Path 87" d="M333.41,495.518,330.7,479.075c-1.371-8.25-2.786-16.658-6.62-24.09-2.52-4.868-6.52-9.507-11.912-10.469a11.523,11.523,0,0,1-3.1-.718c-1.58-.761-2.441-2.47-3.655-3.734-3.131-3.245-8.228-3.3-12.422-4.947-3.7-1.436-6.735-4.2-10.11-6.311s-7.575-3.59-11.309-2.24c-.6,6.426-1.242,13-3.971,18.848a28.2,28.2,0,0,1-42.55,10.6c-6.4-4.818-10.5-12.249-12.407-20.026-.467-1.9-1-4.071-2.743-4.94-1.888-.948-4.157.2-5.744,1.594-2.872,2.578-5.22,6.268-9,7.137-1.364.316-2.872.251-4.007,1.077a9.118,9.118,0,0,0-1.867,2.42,8.616,8.616,0,0,1-7.345,3.633c-1.314-.065-2.872-.366-3.77.589-.668.718-.718,1.838-1.436,2.506-.969.941-2.542.481-3.892.431a7.851,7.851,0,0,0-6.4,3.59,23.16,23.16,0,0,0-2.872,7.08c7.848,17.477,15.028,34.975,22.876,52.451a4.473,4.473,0,0,1,.567,2.154,5.249,5.249,0,0,1-.977,2.154c-3.849,6.182-3.727,13.958-3.3,21.225s.941,14.942-2.3,21.454c-.883,1.788-2.032,3.425-2.872,5.213-1.967,4.05-2.678,17-1.529,21.354h162.33c-3.095-8.509-1.917-25.583-1.271-34.616.452-6.319-.718-12.63-1.221-18.949C334.767,520.641,335.543,508.4,333.41,495.518Z" transform="translate(-104.206 -194.343)" fill="#6c63ff"/>
  <path id="Path_88" data-name="Path 88" d="M146.156,545.163a25.418,25.418,0,0,0-.086,6.268l2.061,29.633c.194,2.793.388,5.579.646,8.365.5,5.407,1.235,10.77,2.154,16.127a2.872,2.872,0,0,0,2.944,2.793c9.083,1.924,18.467,1.845,27.737,1.321,14.145-.79,28.268-2.592,42.435-2.283,3.648.079,7.9,0,10.11-2.872s.926-7.518-1.96-9.837-6.807-2.872-10.512-2.872c-4.9-.05-9.808.646-14.7.359a72.811,72.811,0,0,1-13.226-2.434l-12.206-3.037c.467-3.7,1.874-7.18,3.21-10.691,2.4-6.225,4.638-12.659,4.681-19.329s-2.47-13.685-7.934-17.505c-4.495-3.138-10.282-3.719-15.761-3.59-3.985.115-10.871-.84-14.511.718C148.36,537.559,146.694,542.341,146.156,545.163Z" transform="translate(-99.228 -225.176)" fill="#fbbebe"/>
  <path id="Path_89" data-name="Path 89" d="M360.845,643.128c2.391-.912,5.026-.582,7.589-.237,8.25,1.127,16.622,2.283,24.269,5.579a23.831,23.831,0,0,1,9.435,6.613c2.154,2.721,3.411,6.053,4.6,9.334l2.757,7.554a36.361,36.361,0,0,1,2.405,8.853c.862,9.04-5.32,17.563-13.1,22.259s-16.931,6.369-25.849,8.121-17.871,3.691-26.753,5.744a107.7,107.7,0,0,1-12.587,2.477c-9.507,1.077-19.444-.51-28.477,2.635-3.59,1.257-7.116,3.123-10.842,3.992a67.433,67.433,0,0,1-7.5,1.142l-17.1,1.953a93.266,93.266,0,0,1-10.483.8c-7.467,0-14.813-1.766-22.065-3.533a5.579,5.579,0,0,1-2.154-.869c-1.149-.9-1.4-2.506-1.565-3.956q-1.1-9.629-1.924-19.279c-.172-2.089-.3-4.351.84-6.11,1.436-2.154,4.236-2.829,6.792-3.245a177.266,177.266,0,0,1,32.8-2.276c4.172-4.172,11.05-4.193,16.514-6.462a49.111,49.111,0,0,0,5.823-3.167,76.11,76.11,0,0,1,31.973-10.1,29.76,29.76,0,0,0,6.541-.933c4.229-1.314,8.085-4.89,12.429-4.014.539-1.486.912-3.475,2.154-4.495.617-.524,1.379-.876,1.946-1.436,1.2-1.213,1.307-3.123,1.127-4.818s-.582-3.432-.144-5.084a7.029,7.029,0,0,1,.8-1.773C353.263,644.679,356.516,642.769,360.845,643.128Z" transform="translate(-123.334 -255.389)" fill="#464353"/>
  <path id="Path_90" data-name="Path 90" d="M360.845,643.128c2.391-.912,5.026-.582,7.589-.237,8.25,1.127,16.622,2.283,24.269,5.579a23.831,23.831,0,0,1,9.435,6.613c2.154,2.721,3.411,6.053,4.6,9.334l2.757,7.554a36.361,36.361,0,0,1,2.405,8.853c.862,9.04-5.32,17.563-13.1,22.259s-16.931,6.369-25.849,8.121-17.871,3.691-26.753,5.744a107.7,107.7,0,0,1-12.587,2.477c-9.507,1.077-19.444-.51-28.477,2.635-3.59,1.257-7.116,3.123-10.842,3.992a67.433,67.433,0,0,1-7.5,1.142l-17.1,1.953a93.266,93.266,0,0,1-10.483.8c-7.467,0-14.813-1.766-22.065-3.533a5.579,5.579,0,0,1-2.154-.869c-1.149-.9-1.4-2.506-1.565-3.956q-1.1-9.629-1.924-19.279c-.172-2.089-.3-4.351.84-6.11,1.436-2.154,4.236-2.829,6.792-3.245a177.266,177.266,0,0,1,32.8-2.276c4.172-4.172,11.05-4.193,16.514-6.462a49.111,49.111,0,0,0,5.823-3.167,76.11,76.11,0,0,1,31.973-10.1,29.76,29.76,0,0,0,6.541-.933c4.229-1.314,8.085-4.89,12.429-4.014.539-1.486.912-3.475,2.154-4.495.617-.524,1.379-.876,1.946-1.436,1.2-1.213,1.307-3.123,1.127-4.818s-.582-3.432-.144-5.084a7.029,7.029,0,0,1,.8-1.773C353.263,644.679,356.516,642.769,360.845,643.128Z" transform="translate(-123.334 -255.389)" opacity="0.05"/>
  <path id="Path_91" data-name="Path 91" d="M185.371,744.681c-4.445,5.148-8.358,6.986-15.315,6.821q-6.419-.151-12.824-.668a71.945,71.945,0,0,0-8.789-.409c-8.86.345-17.412,4.4-26.251,3.691a18.607,18.607,0,0,1-3.856-.718,11.222,11.222,0,0,1-5.234-3.174,14.3,14.3,0,0,1-2.973-6.972,32.845,32.845,0,0,1,15.452-33.467,11.329,11.329,0,0,1,4.911-1.745,11.638,11.638,0,0,1,4.969,1.091l.108.043a37.574,37.574,0,0,1,12.307,8.214,6.938,6.938,0,0,0,1.881,1.515,6.463,6.463,0,0,0,2.219.416l9.435.6a22.356,22.356,0,0,1,4.739.653,37.669,37.669,0,0,1,4.983,2.154c5.076,2.269,10.706,2.872,16.191,3.748a2.42,2.42,0,0,1,1.436.574,2.247,2.247,0,0,1,.445.933A18.317,18.317,0,0,1,185.371,744.681Z" transform="translate(-89.001 -273.859)" fill="#3f3d56"/>
  <path id="Path_92" data-name="Path 92" d="M135.57,709.184a56.651,56.651,0,0,0-9.442,11.8,59.079,59.079,0,0,0-7.712,23.364,43.368,43.368,0,0,0-.079,9.054,11.221,11.221,0,0,1-5.234-3.174,14.3,14.3,0,0,1-2.973-6.972,32.845,32.845,0,0,1,15.452-33.467,11.329,11.329,0,0,1,4.911-1.745,11.639,11.639,0,0,1,4.969,1.091Z" transform="translate(-89.001 -273.862)" opacity="0.1"/>
  <path id="Path_93" data-name="Path 93" d="M391.583,733.98c5.277-.144,11.2-.409,15.078,3.145,3.7,3.36,4.186,8.9,4.43,13.894l.28,5.794a11.575,11.575,0,0,1-.553,5.227c-1.264,2.872-4.732,4.258-7.9,4.093s-6.074-1.551-8.968-2.8a126.157,126.157,0,0,0-24.413-7.69q.409-6.01,1.364-11.962c.438-2.75.51-7.352,2.348-9.636,1.946-2.413,4.48-1.106,7.123-.661a57.187,57.187,0,0,0,11.208.6Z" transform="translate(-162.286 -280.793)" fill="#fbbebe"/>
  <path id="Path_94" data-name="Path 94" d="M182.915,647.191c0,.718-1.127,0-1.228-.768-.79-5.809-5.4-10.6-10.77-12.924s-11.488-2.448-17.3-1.9c-8.8.833-18.669,4.2-21.885,12.422-.761,1.924-1.106,4.007-2.039,5.852-1.034,2.025-2.721,3.64-3.841,5.608-1.931,3.4-2.01,7.575-1.314,11.424,1.874,10.268,8.9,19.049,17.4,25.131s18.453,9.715,28.369,12.989a491.972,491.972,0,0,0,80.418,19.207,77.275,77.275,0,0,1,13.125,2.707c3.791,1.271,7.338,3.174,11.043,4.667,8.616,3.461,17.886,4.7,27.069,5.909,1.565.2,3.36.345,4.516-.718,1.493-1.386,1-3.8.574-5.787a31.126,31.126,0,0,1,3.669-22.086c1.537-2.585,3.533-5.234,3.245-8.229-.345-3.49-3.82-5.96-7.281-6.52s-6.979.266-10.454.718a5.6,5.6,0,0,1-3.554-.352,7.1,7.1,0,0,1-1.393-1.235,15.746,15.746,0,0,0-18.338-2.563c-1.285.718-3.231-.883-4.567-1.486l-15.1-6.836c-17.347-7.848-34.781-15.732-53.133-20.7a11.16,11.16,0,0,1-4.093-1.7c-.912-.718-1.565-1.694-2.405-2.491-1.831-1.73-4.38-2.42-6.577-3.648S182.412,649.653,182.915,647.191Z" transform="translate(-93.086 -252.228)" fill="#464353"/>
  <path id="Path_95" data-name="Path 95" d="M494.882,767.94c-2.412,4.473-7.094,7.259-12.12,8.408a24.068,24.068,0,0,1-3.834.546c-6.354.395-12.63-1.364-18.755-3.1l-8.315-2.341a26.243,26.243,0,0,0-4.38-.976,30.052,30.052,0,0,0-6.06.208,107.409,107.409,0,0,1-29.439-1.321,5.19,5.19,0,0,1-2.276-.811,11.309,11.309,0,0,1-1.587-1.946c-2.262-2.721-4.7-4.308-2.018-7.9,1.544-2.082,4.409-3.123,5.608-5.514s.431-5.787-.28-8.257c-.969-3.411-4.157-4.883-5.3-8.013-.854-2.362.582-5.105,2.743-6.39a11.394,11.394,0,0,1,7.324-1.055c2.492.33,4.933,1.034,7.439,1.228,7.367.589,14.9-3.209,21.971-1.07,1.558.474,3.03,1.228,4.61,1.644a15.331,15.331,0,0,0,9.212-.8c1.034-.388,2.046-.854,3.052-1.314a24.577,24.577,0,0,1,6.139-2.219c6.9-1.185,13.3,3.59,18.5,8.25a26.162,26.162,0,0,1,4.7,5.1,25.593,25.593,0,0,1,2.872,7.417C496.6,754.355,498.17,761.837,494.882,767.94Z" transform="translate(-172.264 -279.14)" fill="#3f3d56"/>
  <path id="Path_96" data-name="Path 96" d="M517.5,767.923c-2.412,4.473-7.094,7.259-12.12,8.408a23.472,23.472,0,0,0,2.549-12.321c-.431-6.828-3.432-13.262-7.259-18.934a67.06,67.06,0,0,0-8-9.743c-2.283-2.3-5.091-4.121-7.546-6.225a24.576,24.576,0,0,1,6.139-2.219c6.9-1.185,13.3,3.59,18.5,8.25a26.161,26.161,0,0,1,4.7,5.1,25.592,25.592,0,0,1,2.872,7.417C519.212,754.338,520.784,761.82,517.5,767.923Z" transform="translate(-194.877 -279.123)" opacity="0.1"/>
  <path id="Path_97" data-name="Path 97" d="M157.433,473.811a7.432,7.432,0,0,0-1.594,2.549,120.528,120.528,0,0,0-10.124,41.372,4.136,4.136,0,0,1-.467,2,8.761,8.761,0,0,1-1.055,1.142,3.963,3.963,0,0,0,.675,5.744c1.185-2.233,4.021-2.958,6.541-3.152,12.07-.955,23.86,4.66,35.966,4.236-.854-2.951-2.082-5.787-2.779-8.774-3.08-13.262,4.6-27.7-.108-40.475-.941-2.556-2.513-5.069-4.99-6.189a13.291,13.291,0,0,0-3.2-.847c-3.059-.553-9.148-2.915-12.106-1.967-1.091.352-1.522,1.379-2.427,2C160.4,472.332,158.575,472.655,157.433,473.811Z" transform="translate(-98.479 -206.52)" fill="#6c63ff"/>
  <rect id="Rectangle_20" data-name="Rectangle 20" width="160.118" height="101.959" rx="7.97" transform="translate(84.416 293.427)" fill="#3f3d56"/>
  <circle id="Ellipse_9" data-name="Ellipse 9" cx="4.308" cy="4.308" r="4.308" transform="translate(159.807 340.098)" fill="#fff"/>
  <path id="Path_98" data-name="Path 98" d="M218.2,296.454c-2.413,1.745-4.064,4.251-5.744,6.656-3.095,4.445-6.6,8.882-11.546,11.359-1.874.941-4.014,1.651-5.256,3.289a8.86,8.86,0,0,0-1.4,3.683,72.988,72.988,0,0,0-1.479,14.073,15.641,15.641,0,0,0,1.142,6.922c.984,2.01,2.757,3.712,3.123,5.9.28,1.709-.352,3.411-.574,5.127s.165,3.748,1.752,4.567a10.619,10.619,0,0,0,2.657.625c4.775,1.063,6.376,6.663,7.1,11.294,1.623-.093,2.355-1.953,2.693-3.468l4.976-22.122c.539-2.4,1.436-5.177,3.827-6.017,1.6-.553,3.353-.036,5.026.108,6.57.539,12.127-4.538,18.554-5.938a23.694,23.694,0,0,1,6.254-.416c5.069.251,10.964,2.334,12.041,7.065.18.768.287,1.687,1.005,2.068s1.472.057,2.226,0c3.217-.323,5.112,3.3,6.039,6.254l3.375,10.77c.5,1.63,1.35,3.547,3.116,3.755,1.63.2,3.016-1.343,3.26-2.872a12.582,12.582,0,0,0-.639-4.653c-1.587-7.072.84-14.31,2.319-21.4s1.745-15.229-3.217-20.686c-1.8-1.975-4.172-3.446-5.852-5.529-1.565-1.953-2.448-4.351-4.071-6.268-4.488-5.292-16-9.377-23.056-10.052C237.783,289.676,224.715,291.723,218.2,296.454Z" transform="translate(-112.44 -156.08)" fill="#3f3d56"/>
  <g id="Group_8" data-name="Group 8" transform="translate(80.337 166.331)" opacity="0.1">
    <path id="Path_99" data-name="Path 99" d="M278.569,371.382c-1.766-.215-2.614-2.154-3.116-3.755q-1.687-5.392-3.375-10.77c-.926-2.965-2.822-6.584-6.039-6.254-.754.079-1.565.373-2.226,0s-.826-1.3-1.005-2.068c-1.077-4.739-6.972-6.814-12.041-7.065a24.005,24.005,0,0,0-6.254.409c-6.426,1.436-11.984,6.462-18.554,5.938-1.695-.136-3.446-.653-5.026-.1-2.42.833-3.289,3.59-3.827,6.017l-4.976,22.115c-.337,1.522-1.07,3.382-2.693,3.468-.718-4.624-2.326-10.225-7.1-11.287a11.287,11.287,0,0,1-2.657-.625,3.116,3.116,0,0,1-1.386-1.544c-.129.668-.28,1.336-.366,2-.215,1.709.165,3.748,1.752,4.567a10.62,10.62,0,0,0,2.657.625c4.775,1.063,6.376,6.663,7.1,11.294,1.623-.093,2.355-1.953,2.693-3.468l4.976-22.122c.539-2.4,1.436-5.177,3.827-6.017,1.6-.553,3.353-.036,5.026.108,6.57.539,12.127-4.538,18.554-5.938a23.694,23.694,0,0,1,6.254-.416c5.069.251,10.964,2.334,12.041,7.065.18.768.287,1.687,1.005,2.068s1.472.057,2.226,0c3.217-.323,5.112,3.3,6.039,6.254q1.68,5.392,3.375,10.77c.5,1.63,1.35,3.547,3.116,3.755,1.63.2,3.016-1.343,3.26-2.872a9.75,9.75,0,0,0-.431-3.813A2.965,2.965,0,0,1,278.569,371.382Z" transform="translate(-194.216 -336.81)"/>
    <path id="Path_100" data-name="Path 100" d="M197.045,360.1c-.366-2.19-2.154-3.892-3.123-5.9a11.811,11.811,0,0,1-1.063-4.308c0,.8-.072,1.608-.079,2.42a15.641,15.641,0,0,0,1.142,6.922c.8,1.63,2.111,3.066,2.772,4.725a10.814,10.814,0,0,0,.352-3.856Z" transform="translate(-192.78 -339.199)"/>
    <path id="Path_101" data-name="Path 101" d="M316.028,340.622c-1.307,6.261-3.346,12.637-2.714,18.913.409-4.631,1.759-9.291,2.714-13.887A36.619,36.619,0,0,0,316.861,335a43.9,43.9,0,0,1-.833,5.622Z" transform="translate(-226.735 -335)"/>
  </g>
  <g id="Group_9" data-name="Group 9" transform="translate(214.959 88.074)" opacity="0.8">
    <line id="Line_10" data-name="Line 10" x2="448.805" transform="translate(22.014 120.505)" fill="none" stroke="#3f3d56" stroke-miterlimit="10" stroke-width="3"/>
    <path id="Path_102" data-name="Path 102" d="M466.46,378.5s21.462,2.98,10.347-20.047,30.157-18.668,30.157-18.668" transform="translate(-404.574 -257.999)" fill="none" stroke="#3f3d56" stroke-miterlimit="10" stroke-width="3"/>
    <path id="Path_103" data-name="Path 103" d="M665.53,393.781s21.462-2.973,10.347,20.054S706.033,432.5,706.033,432.5" transform="translate(-460.708 -273.283)" fill="none" stroke="#3f3d56" stroke-miterlimit="10" stroke-width="3"/>
    <path id="Path_104" data-name="Path 104" d="M936.253,393.781s-21.469-2.973-10.347,20.054S895.75,432.5,895.75,432.5" transform="translate(-525.625 -273.283)" fill="none" stroke="#3f3d56" stroke-miterlimit="10" stroke-width="3"/>
    <line id="Line_11" data-name="Line 11" x1="118.423" transform="translate(251.702 159.214)" fill="none" stroke="#3f3d56" stroke-miterlimit="10" stroke-width="3"/>
    <circle id="Ellipse_10" data-name="Ellipse 10" cx="13.104" cy="13.104" r="13.104" transform="translate(8.911 107.401)" fill="#6c63ff"/>
    <circle id="Ellipse_11" data-name="Ellipse 11" cx="13.104" cy="13.104" r="13.104" transform="translate(89.508 68.492)" fill="#3acc6c"/>
    <circle id="Ellipse_12" data-name="Ellipse 12" cx="13.104" cy="13.104" r="13.104" transform="translate(89.508 107.401)" fill="#6c63ff"/>
    <circle id="Ellipse_13" data-name="Ellipse 13" cx="13.104" cy="13.104" r="13.104" transform="translate(141.522 107.401)" fill="#6c63ff"/>
    <circle id="Ellipse_14" data-name="Ellipse 14" cx="13.104" cy="13.104" r="13.104" transform="translate(232.437 145.916)" fill="#ff6584"/>
    <circle id="Ellipse_15" data-name="Ellipse 15" cx="13.104" cy="13.104" r="13.104" transform="translate(301.137 145.916)" fill="#ff6584"/>
    <circle id="Ellipse_16" data-name="Ellipse 16" cx="13.104" cy="13.104" r="13.104" transform="translate(297.554 107.401)" fill="#6c63ff"/>
    <circle id="Ellipse_17" data-name="Ellipse 17" cx="13.104" cy="13.104" r="13.104" transform="translate(454.399 107.401)" fill="#6c63ff"/>
    <circle id="Ellipse_18" data-name="Ellipse 18" cx="13.104" cy="13.104" r="13.104" transform="translate(390.236 107.401)" fill="#6c63ff"/>
    <rect id="Rectangle_21" data-name="Rectangle 21" width="43.964" height="30.3" fill="#6c63ff"/>
    <rect id="Rectangle_22" data-name="Rectangle 22" width="43.964" height="30.3" transform="translate(80.792)" fill="#3acc6c"/>
    <rect id="Rectangle_23" data-name="Rectangle 23" width="43.964" height="30.3" transform="translate(223.376)" fill="#ff6584"/>
  </g>
  <g id="Group_10" data-name="Group 10" transform="translate(0 208.709)" opacity="0.1">
    <path id="Path_105" data-name="Path 105" d="M142.892,400.26s-53.686-22.575-60.723,18.159c0,0-3.669,6.347,1.436,11.589,0,0,1.1-2.815,6.283.093a26.69,26.69,0,0,0,5.859,2.384,13.183,13.183,0,0,0,8.343-.445h0s17.656-.955,32.5-24.054c0,0,6.369-3.935,6.685-5.414l-10.641.718s.819,7.791-3.59,12.465c0,0,3.906-12.091,2.032-12.429-.381-.072-5.622.617-5.622.617s1.357,13.549-5.744,20.557c0,0,6.591-13.779,3.727-20.313l-7.855,1.515s2.154,14.253-5.615,22.539c0,0,6.39-14.648,3.92-22.086l-7.518,2.527s1.809,13.937-4.689,20.823c0,0,5.672-17.67,3-20.1,0,0-6.764,2.743-8.207,4.308,0,0,1.07,10.052-3.059,13.678,0,0,2.535-12.206,1.278-12.709,0,0-7.855,5.916-10.253,11.022,0,0,2.987-7.8,9.27-12.206,0,0-5.277-.89-9.334,1.314,0,0,2.714-5.177,11.237-2.721,0,0,6.311-4.373,7.575-4.308,0,0-8.063-3.59-13.886-3.145,0,0,6.247-3.59,15.854,2.405l7.5-2.707S102.252,399,97.039,399.018c0,0,6.936-2.685,17.57,4.782l7.683-1.565s-8.616-5.277-14.425-6.505c0,0,6.965-1.106,16.644,6.139l5.249-.438s-6.354-3.748-8.279-4.66-1.838-1.5-1.838-1.5a25.052,25.052,0,0,1,12.307,5.873S142.849,400.928,142.892,400.26Z" transform="translate(-80.893 -394.021)" fill="#6c63ff"/>
  </g>
  <g id="Group_11" data-name="Group 11" transform="translate(7.867 145.369)" opacity="0.1">
    <path id="Path_106" data-name="Path 106" d="M144,334.917S124.986,290.924,97.594,311.1c0,0-5.787,1.68-5.744,7.683,0,0,2.255-1.048,3.683,3.64a21.613,21.613,0,0,0,2.154,4.746,10.77,10.77,0,0,0,5.206,4.488h0s11.036,9.492,33.029,4.229c0,0,6.031,1.285,7.058.6l-6.721-5.651s-3.956,5.1-9.255,5.342c0,0,9.212-4.954,8.293-6.225-.187-.258-3.7-2.829-3.7-2.829s-6.907,8.817-15.078,8.954c0,0,11.768-4.437,13.786-9.945l-5.529-3.59s-6.972,9.7-16.306,10.2c0,0,12.142-5.062,14.913-10.892l-5.909-2.779s-6.864,9.334-14.626,9.686c0,0,13.441-7.266,13.233-10.232,0,0-5.579-2.226-7.353-2.1,0,0-5.076,6.57-9.607,6.383,0,0,8.465-5.809,8.006-6.821,0,0-8.042-.962-12.371.718,0,0,6.218-2.93,12.458-1.967,0,0-2.628-3.54-6.283-4.524,0,0,4.567-1.529,8.229,4.775,0,0,6.232,1.005,6.965,1.752,0,0-2.736-6.742-6.462-9.779,0,0,5.744,1.436,8.042,10.462l6,2.664s-3.145-9.1-6.261-12.056c0,0,5.651,2.355,7.719,12.853l5.457,3.439s-2.111-8.042-4.861-12.084c0,0,4.768,3.317,6.383,13.133l3.375,2.728s-1.644-5.845-2.269-7.482-.237-1.939-.237-1.939a20.571,20.571,0,0,1,3.942,10.541S143.59,335.284,144,334.917Z" transform="translate(-91.85 -305.806)" fill="#6c63ff"/>
  </g>
</svg>
